<svg width='600' height='200' viewbox='0 0 600 200' xmlns='http://www.w3.org/2000/svg'><rect width='100%' height='100%' fill='#eeeeee' /><path fill="#31343c" d="M93.20 104.50L93.20 101.50L116.96 89.11L116.96 94.39Q116.96 94.99 116.66 95.48Q116.36 95.98 115.67 96.34L115.67 96.34L104.78 101.92Q104.09 102.28 103.32 102.53Q102.56 102.79 101.69 103L101.69 103Q102.56 103.21 103.32 103.47Q104.09 103.72 104.78 104.08L104.78 104.08L115.67 109.69Q116.36 110.05 116.66 110.55Q116.96 111.04 116.96 111.64L116.96 111.64L116.96 116.92L93.20 104.50ZM135.19 133.27L127.78 133.27L127.78 92.44L132.31 92.44Q133.03 92.44 133.55 92.77Q134.06 93.10 134.21 93.79L134.21 93.79L134.81 96.64Q136.66 94.51 139.08 93.19Q141.50 91.87 144.74 91.87L144.74 91.87Q147.25 91.87 149.34 92.92Q151.43 93.97 152.94 95.97Q154.46 97.96 155.28 100.88Q156.11 103.81 156.11 107.59L156.11 107.59Q156.11 111.04 155.18 113.98Q154.25 116.92 152.52 119.08Q150.80 121.24 148.35 122.45Q145.91 123.67 142.88 123.67L142.88 123.67Q140.26 123.67 138.45 122.88Q136.63 122.08 135.19 120.67L135.19 120.67L135.19 133.27ZM142.19 97.72L142.19 97.72Q139.88 97.72 138.24 98.69Q136.60 99.67 135.19 101.44L135.19 101.44L135.19 115.24Q136.46 116.80 137.94 117.41Q139.43 118.03 141.13 118.03L141.13 118.03Q142.81 118.03 144.18 117.40Q145.55 116.77 146.49 115.48Q147.44 114.19 147.94 112.22Q148.46 110.26 148.46 107.59L148.46 107.59Q148.46 104.89 148.02 103.02Q147.59 101.14 146.78 99.97Q145.97 98.80 144.81 98.26Q143.66 97.72 142.19 97.72ZM162.19 78.64L169.60 78.64L169.60 123.22L162.19 123.22L162.19 78.64ZM202.09 103.78L202.09 123.22L198.76 123.22Q197.71 123.22 197.11 122.91Q196.51 122.59 196.21 121.63L196.21 121.63L195.55 119.44Q194.38 120.49 193.26 121.28Q192.13 122.08 190.93 122.62Q189.73 123.16 188.38 123.43Q187.03 123.70 185.38 123.70L185.38 123.70Q183.43 123.70 181.78 123.17Q180.13 122.65 178.95 121.60Q177.76 120.55 177.10 118.99Q176.44 117.43 176.44 115.36L176.44 115.36Q176.44 113.62 177.36 111.92Q178.27 110.23 180.40 108.86Q182.53 107.50 186.07 106.60Q189.61 105.70 194.86 105.58L194.86 105.58L194.86 103.78Q194.86 100.69 193.56 99.20Q192.25 97.72 189.76 97.72L189.76 97.72Q187.96 97.72 186.76 98.14Q185.56 98.56 184.68 99.09Q183.79 99.61 183.04 100.03Q182.29 100.45 181.39 100.45L181.39 100.45Q180.64 100.45 180.10 100.06Q179.56 99.67 179.23 99.10L179.23 99.10L177.88 96.73Q183.19 91.87 190.69 91.87L190.69 91.87Q193.39 91.87 195.51 92.75Q197.63 93.64 199.09 95.22Q200.56 96.79 201.33 98.98Q202.09 101.17 202.09 103.78L202.09 103.78ZM187.69 118.60L187.69 118.60Q188.83 118.60 189.79 118.39Q190.75 118.18 191.61 117.76Q192.46 117.34 193.26 116.72Q194.05 116.11 194.86 115.27L194.86 115.27L194.86 110.08Q191.63 110.23 189.45 110.64Q187.27 111.04 185.95 111.67Q184.63 112.30 184.08 113.14Q183.52 113.98 183.52 114.97L183.52 114.97Q183.52 116.92 184.68 117.76Q185.83 118.60 187.69 118.60ZM232.96 96.25L231.01 98.95Q230.68 99.37 230.37 99.61Q230.05 99.85 229.45 99.85L229.45 99.85Q228.88 99.85 228.34 99.50Q227.80 99.16 227.05 98.72Q226.30 98.29 225.27 97.94Q224.23 97.60 222.70 97.60L222.70 97.60Q220.75 97.60 219.28 98.31Q217.81 99.01 216.84 100.33Q215.86 101.65 215.38 103.53Q214.90 105.40 214.90 107.77L214.90 107.77Q214.90 110.23 215.43 112.15Q215.95 114.07 216.94 115.38Q217.93 116.68 219.34 117.36Q220.75 118.03 222.52 118.03L222.52 118.03Q224.29 118.03 225.39 117.59Q226.48 117.16 227.23 116.64Q227.98 116.11 228.54 115.67Q229.09 115.24 229.78 115.24L229.78 115.24Q230.68 115.24 231.13 115.93L231.13 115.93L233.26 118.63Q232.03 120.07 230.59 121.05Q229.15 122.02 227.61 122.61Q226.06 123.19 224.41 123.43Q222.76 123.67 221.14 123.67L221.14 123.67Q218.29 123.67 215.77 122.61Q213.25 121.54 211.38 119.50Q209.50 117.46 208.41 114.50Q207.31 111.55 207.31 107.77L207.31 107.77Q207.31 104.38 208.29 101.48Q209.26 98.59 211.15 96.47Q213.04 94.36 215.83 93.16Q218.62 91.96 222.25 91.96L222.25 91.96Q225.70 91.96 228.30 93.07Q230.89 94.18 232.96 96.25L232.96 96.25ZM250.72 91.96L250.72 91.96Q253.63 91.96 256.08 92.89Q258.52 93.82 260.29 95.61Q262.06 97.39 263.06 99.98Q264.04 102.58 264.04 105.91L264.04 105.91Q264.04 106.75 263.97 107.31Q263.89 107.86 263.70 108.17Q263.50 108.49 263.18 108.63Q262.84 108.76 262.33 108.76L262.33 108.76L243.31 108.76Q243.64 113.50 245.86 115.72Q248.08 117.94 251.74 117.94L251.74 117.94Q253.54 117.94 254.85 117.52Q256.15 117.10 257.13 116.59Q258.10 116.08 258.84 115.66Q259.57 115.24 260.26 115.24L260.26 115.24Q260.71 115.24 261.04 115.42Q261.38 115.60 261.62 115.93L261.62 115.93L263.77 118.63Q262.54 120.07 261.01 121.05Q259.49 122.02 257.82 122.61Q256.15 123.19 254.43 123.43Q252.70 123.67 251.08 123.67L251.08 123.67Q247.88 123.67 245.11 122.61Q242.35 121.54 240.31 119.45Q238.27 117.37 237.10 114.30Q235.93 111.22 235.93 107.17L235.93 107.17Q235.93 104.02 236.95 101.25Q237.97 98.47 239.88 96.41Q241.78 94.36 244.53 93.16Q247.27 91.96 250.72 91.96ZM250.88 97.27L250.88 97.27Q247.63 97.27 245.80 99.10Q243.97 100.93 243.46 104.29L243.46 104.29L257.38 104.29Q257.38 102.85 257.00 101.58Q256.60 100.30 255.79 99.34Q254.98 98.38 253.75 97.83Q252.52 97.27 250.88 97.27ZM277.49 123.22L270.07 123.22L270.07 78.64L277.49 78.64L277.49 95.77Q279.29 94.06 281.44 93.01Q283.61 91.96 286.51 91.96L286.51 91.96Q289.04 91.96 290.99 92.81Q292.94 93.67 294.24 95.22Q295.55 96.76 296.22 98.91Q296.89 101.05 296.89 103.63L296.89 103.63L296.89 123.22L289.49 123.22L289.49 103.63Q289.49 100.81 288.18 99.27Q286.88 97.72 284.26 97.72L284.26 97.72Q282.35 97.72 280.67 98.59Q278.99 99.46 277.49 100.96L277.49 100.96L277.49 123.22ZM317.33 91.96L317.33 91.96Q320.78 91.96 323.58 93.07Q326.39 94.18 328.37 96.22Q330.35 98.26 331.43 101.20Q332.50 104.14 332.50 107.77L332.50 107.77Q332.50 111.43 331.43 114.37Q330.35 117.31 328.37 119.38Q326.39 121.45 323.58 122.56Q320.78 123.67 317.33 123.67L317.33 123.67Q313.88 123.67 311.06 122.56Q308.24 121.45 306.24 119.38Q304.25 117.31 303.15 114.37Q302.06 111.43 302.06 107.77L302.06 107.77Q302.06 104.14 303.15 101.20Q304.25 98.26 306.24 96.22Q308.24 94.18 311.06 93.07Q313.88 91.96 317.33 91.96ZM317.33 117.97L317.33 117.97Q321.17 117.97 323.01 115.39Q324.86 112.81 324.86 107.83L324.86 107.83Q324.86 102.85 323.01 100.24Q321.17 97.63 317.33 97.63L317.33 97.63Q313.43 97.63 311.56 100.25Q309.71 102.88 309.71 107.83L309.71 107.83Q309.71 112.78 311.56 115.38Q313.43 117.97 317.33 117.97ZM338.78 78.64L346.19 78.64L346.19 123.22L338.78 123.22L338.78 78.64ZM380.75 123.22L376.22 123.22Q374.78 123.22 374.33 121.87L374.33 121.87L373.73 118.90Q372.77 119.98 371.72 120.85Q370.67 121.72 369.45 122.35Q368.24 122.98 366.84 123.33Q365.45 123.67 363.83 123.67L363.83 123.67Q361.31 123.67 359.21 122.62Q357.11 121.57 355.59 119.58Q354.08 117.58 353.25 114.64Q352.43 111.70 352.43 107.92L352.43 107.92Q352.43 104.50 353.36 101.56Q354.29 98.62 356.03 96.46Q357.77 94.30 360.20 93.09Q362.63 91.87 365.66 91.87L365.66 91.87Q368.24 91.87 370.07 92.69Q371.90 93.52 373.34 94.90L373.34 94.90L373.34 78.64L380.75 78.64L380.75 123.22ZM366.35 117.79L366.35 117.79Q368.66 117.79 370.28 116.83Q371.90 115.87 373.34 114.10L373.34 114.10L373.34 100.30Q372.08 98.77 370.59 98.14Q369.11 97.51 367.40 97.51L367.40 97.51Q365.72 97.51 364.35 98.14Q362.99 98.77 362.04 100.05Q361.10 101.32 360.59 103.28Q360.08 105.25 360.08 107.92L360.08 107.92Q360.08 110.62 360.51 112.50Q360.95 114.37 361.76 115.55Q362.57 116.74 363.74 117.27Q364.91 117.79 366.35 117.79ZM401.48 91.96L401.48 91.96Q404.38 91.96 406.83 92.89Q409.28 93.82 411.05 95.61Q412.81 97.39 413.81 99.98Q414.80 102.58 414.80 105.91L414.80 105.91Q414.80 106.75 414.72 107.31Q414.65 107.86 414.45 108.17Q414.25 108.49 413.93 108.63Q413.60 108.76 413.09 108.76L413.09 108.76L394.06 108.76Q394.40 113.50 396.62 115.72Q398.84 117.94 402.50 117.94L402.50 117.94Q404.30 117.94 405.60 117.52Q406.91 117.10 407.88 116.59Q408.86 116.08 409.59 115.66Q410.32 115.24 411.01 115.24L411.01 115.24Q411.47 115.24 411.80 115.42Q412.13 115.60 412.37 115.93L412.37 115.93L414.53 118.63Q413.30 120.07 411.76 121.05Q410.24 122.02 408.57 122.61Q406.91 123.19 405.18 123.43Q403.46 123.67 401.84 123.67L401.84 123.67Q398.63 123.67 395.87 122.61Q393.11 121.54 391.06 119.45Q389.03 117.37 387.86 114.30Q386.69 111.22 386.69 107.17L386.69 107.17Q386.69 104.02 387.71 101.25Q388.73 98.47 390.63 96.41Q392.54 94.36 395.28 93.16Q398.03 91.96 401.48 91.96ZM401.63 97.27L401.63 97.27Q398.38 97.27 396.56 99.10Q394.73 100.93 394.22 104.29L394.22 104.29L408.13 104.29Q408.13 102.85 407.75 101.58Q407.36 100.30 406.55 99.34Q405.74 98.38 404.50 97.83Q403.28 97.27 401.63 97.27ZM428.24 123.22L420.82 123.22L420.82 92.44L425.18 92.44Q426.31 92.44 426.76 92.86Q427.22 93.28 427.37 94.30L427.37 94.30L427.81 98.02Q429.47 95.17 431.69 93.52Q433.91 91.87 436.67 91.87L436.67 91.87Q438.94 91.87 440.44 92.92L440.44 92.92L439.49 98.47Q439.39 99.01 439.10 99.23Q438.80 99.46 438.29 99.46L438.29 99.46Q437.84 99.46 437.06 99.25Q436.28 99.04 434.99 99.04L434.99 99.04Q432.68 99.04 431.03 100.31Q429.38 101.59 428.24 104.05L428.24 104.05L428.24 123.22ZM476.87 78.64L459.50 123.31Q459.22 124 458.81 124.51Q458.38 125.02 457.84 125.36Q457.31 125.71 456.70 125.89Q456.10 126.07 455.53 126.07L455.53 126.07L452.41 126.07L469.94 81.25Q470.44 79.99 471.40 79.31Q472.37 78.64 473.71 78.64L473.71 78.64L476.87 78.64ZM506.80 104.50L483.04 116.92L483.04 111.64Q483.04 111.04 483.34 110.55Q483.64 110.05 484.33 109.69L484.33 109.69L495.22 104.08Q496.54 103.42 498.31 103L498.31 103Q497.44 102.79 496.68 102.53Q495.91 102.28 495.22 101.92L495.22 101.92L484.33 96.34Q483.64 95.98 483.34 95.48Q483.04 94.99 483.04 94.39L483.04 94.39L483.04 89.11L506.80 101.50L506.80 104.50Z"/></svg>
